<?xml version="1.0" encoding="UTF-8"?>
<svg id="Layer_1" xmlns="http://www.w3.org/2000/svg" version="1.1" viewBox="0 0 404.48 373.19">
  <!-- Generator: Adobe Illustrator 30.2.1, SVG Export Plug-In . SVG Version: 2.1.1 Build 1)  -->
  <defs>
    <style>
      .st0 {
        fill: #6c5ce7;
      }
    </style>
  </defs>
  <path class="st0" d="M130.31,233.47c0,34.18-12.9,51.32-38.7,51.4-11.2,0-20.29-2.61-27.25-7.84v75.13H29.14V84.25c0-34.18,16.88-51.31,50.65-51.4,33.68,0,50.53,17.13,50.53,51.4v149.21ZM64.36,233.47c0,11.04,5.14,16.55,15.43,16.55s15.31-5.52,15.31-16.55V84.25c0-11.03-5.14-16.55-15.43-16.55s-15.23,5.48-15.31,16.43v149.34Z"/>
  <path class="st0" d="M141,176.22v57.25c0,11.04,5.1,16.55,15.31,16.55s15.43-5.52,15.43-16.55v-17.47h35.22v17.47c0,34.18-16.88,51.32-50.65,51.4-33.69,0-50.53-17.13-50.53-51.4V84.13c0-34.18,16.84-51.27,50.53-51.27s50.65,17.09,50.65,51.27v92.09h-65.96ZM141,141.37h30.74v-57.25c0-10.95-5.1-16.47-15.31-16.55h-.25c-10.12,0-15.18,5.52-15.18,16.55v57.25Z"/>
  <path class="st0" d="M206.96,86.12v196.76h35.22V86.12c0-11.03,5.06-16.55,15.18-16.55h8.32l-7.63-34.44c-29.96,2.29-51.09,19.28-51.09,51Z"/>
  <path class="st0" d="M324.05,86.12c0-11.03-5.06-16.55-15.18-16.55h-.25c-10.21.08-15.31,5.6-15.31,16.55v23.62h-35.22v-23.62c0-34.18,16.88-51.27,50.65-51.27s50.53,17.09,50.53,51.27v149.34c0,34.27-16.84,51.4-50.53,51.4-33.77-.08-50.65-17.22-50.65-51.4v-40.94c0-34.18,12.9-51.32,38.7-51.4,11.2,0,20.29,2.61,27.26,7.84v-64.84ZM293.31,235.46c0,11.04,5.14,16.55,15.43,16.55s15.31-5.52,15.31-16.55v-41.07c-.08-10.95-5.19-16.43-15.31-16.43s-15.43,5.52-15.43,16.55v40.94Z"/>
</svg>