<?xml version="1.0" encoding="UTF-8"?>
<svg id="Layer_1" xmlns="http://www.w3.org/2000/svg" version="1.1" viewBox="0 0 703.47 445.05">
  <!-- Generator: Adobe Illustrator 30.2.1, SVG Export Plug-In . SVG Version: 2.1.1 Build 1)  -->
  <defs>
    <style>
      .st0 {
        fill: #fff;
      }

      .st1 {
        fill: #6c5ce7;
      }
    </style>
  </defs>
  <g>
    <path class="st1" d="M158.71,269.67c0,34.18-12.9,51.32-38.7,51.4-11.2,0-20.29-2.61-27.25-7.84v75.13h-35.22V120.45c0-34.18,16.88-51.31,50.65-51.4,33.68,0,50.53,17.13,50.53,51.4v149.21ZM92.75,269.67c0,11.04,5.14,16.55,15.43,16.55s15.31-5.52,15.31-16.55V120.45c0-11.03-5.14-16.55-15.43-16.55s-15.23,5.48-15.31,16.43v149.34Z"/>
    <path class="st1" d="M221.31,212.42v57.25c0,11.04,5.1,16.55,15.31,16.55s15.43-5.52,15.43-16.55v-17.47h35.22v17.47c0,34.18-16.88,51.32-50.65,51.4-33.69,0-50.53-17.13-50.53-51.4V120.33c0-34.18,16.84-51.27,50.53-51.27s50.65,17.09,50.65,51.27v92.09h-65.96ZM221.31,177.58h30.74v-57.25c0-10.95-5.1-16.47-15.31-16.55h-.25c-10.12,0-15.18,5.52-15.18,16.55v57.25Z"/>
    <path class="st1" d="M314.64,120.33c0-34.18,24.53-51.27,58.22-51.27h-7.2l7.69,34.72h-8.32c-10.12,0-15.18,5.52-15.18,16.55v196.76h-35.22V120.33Z"/>
    <path class="st1" d="M451.54,120.33c0-11.03-5.06-16.55-15.18-16.55h-.25c-10.21.08-15.31,5.6-15.31,16.55v23.62h-35.22v-23.62c0-34.18,16.88-51.27,50.65-51.27s50.53,17.09,50.53,51.27v149.34c0,34.27-16.84,51.4-50.53,51.4-33.77-.08-50.65-17.22-50.65-51.4v-40.94c0-34.18,12.9-51.32,38.7-51.4,11.2,0,20.29,2.61,27.26,7.84v-64.84ZM420.8,269.67c0,11.04,5.14,16.55,15.43,16.55s15.31-5.52,15.31-16.55v-41.07c-.08-10.95-5.19-16.43-15.31-16.43s-15.43,5.52-15.43,16.55v40.94Z"/>
  </g>
  <g>
    <path class="st0" d="M566.58,220.77v56.96c0,28.17-12.82,39.4-30.96,39.4s-30.23-10.66-30.23-38.32v-58.02c0-22.58,11.12-36.44,31-36.44s30.19,13.97,30.19,36.43ZM518.14,220.91v58.27c0,16.59,5.82,26.58,17.78,26.58,11.02,0,17.91-7.25,17.91-26.67v-58.23c0-14.62-5.31-25.17-17.74-25.17s-17.95,9.28-17.95,25.21Z"/>
    <path class="st0" d="M594.81,278.25v5.49c0,15.71,6.9,22.23,16.81,22.23,11.76,0,16.29-7.49,16.29-21.64,0-15.36-4.62-21.46-18.63-30.87-16.91-11.33-24.57-20.2-24.57-37.66s7.42-31.46,27.51-31.46c21.71,0,26.87,15.27,26.87,31.61v6.4h-12.38v-6.51c0-12.35-3.28-20.35-14.88-20.35-10.18,0-14.41,6.92-14.41,19.08s3.59,17.23,17.29,26.58c16.35,11.05,26,19.87,26,41.18,0,22.39-9.22,34.79-29.86,34.79-22.57,0-28.83-15.75-28.83-32.99v-5.88h12.79Z"/>
  </g>
  <g>
    <path class="st0" d="M197.52,388.22c-1.71-.36-3.31-.91-4.8-1.64-1.49-.73-2.88-1.64-4.17-2.73l2.38-3.12c1.66,1.46,3.49,2.55,5.5,3.28,2,.73,4.18,1.09,6.54,1.09,3.41,0,6.05-.67,7.92-2.02,1.87-1.35,2.8-3.24,2.8-5.69v-.03c0-1.51-.41-2.72-1.22-3.64-.81-.91-1.86-1.59-3.14-2.05-1.29-.46-2.94-.88-4.96-1.26-.05-.02-.11-.03-.18-.04-.06,0-.13-.02-.21-.04l-.79-.16c-2.79-.53-5.02-1.08-6.7-1.65s-3.1-1.55-4.28-2.93c-1.18-1.38-1.76-3.29-1.76-5.73v-.03c0-2.46.55-4.56,1.65-6.3,1.1-1.74,2.71-3.07,4.83-3.98,2.11-.91,4.66-1.37,7.63-1.37,1.4,0,2.79.16,4.17.46,1.38.31,2.73.77,4.07,1.38,1.34.61,2.67,1.38,3.98,2.31l-2.32,3.09c-1.71-1.2-3.39-2.1-5.03-2.69-1.64-.59-3.26-.89-4.87-.89-3.25,0-5.76.68-7.55,2.05s-2.68,3.29-2.68,5.77v.03c0,1.5.45,2.68,1.34,3.54.89.87,2,1.51,3.32,1.93,1.32.42,3.13.86,5.43,1.31.07.02.15.04.23.05.08.02.17.04.26.05.11.02.21.04.31.07s.21.05.31.07c2.5.51,4.58,1.09,6.23,1.75s3.04,1.68,4.14,3.08,1.65,3.28,1.65,5.65v.05c0,2.42-.57,4.5-1.72,6.22s-2.81,3.04-4.99,3.94-4.81,1.35-7.89,1.35c-1.91,0-3.73-.18-5.44-.55Z"/>
    <path class="st0" d="M227.32,386.47c-1.82-1.53-2.73-3.69-2.73-6.48s.83-4.75,2.5-6.22c1.67-1.47,4.02-2.2,7.07-2.2h9.43l.38,3.66h-9.79c-1.82,0-3.23.42-4.22,1.24-.99.83-1.49,2-1.49,3.51,0,1.6.62,2.85,1.87,3.73,1.25.88,3.01,1.33,5.29,1.33,2.44,0,4.34-.25,5.69-.74s2.02-1.18,2.02-2.08l.57,3.72c-.57.58-1.29,1.09-2.17,1.52-.88.43-1.9.75-3.04.97s-2.37.33-3.68.33c-3.32,0-5.89-.77-7.71-2.3ZM243.34,370.37c0-2.3-.62-4.08-1.85-5.35-1.23-1.27-2.98-1.9-5.24-1.9-1.35,0-2.67.22-3.96.66s-2.44,1.06-3.45,1.86l-2.87-1.97c1.08-1.29,2.49-2.3,4.25-3.02,1.76-.72,3.71-1.08,5.87-1.08,2.35,0,4.37.42,6.04,1.24,1.68.83,2.95,2.03,3.83,3.61.88,1.58,1.31,3.48,1.31,5.7v18.24h-3.94v-17.99Z"/>
    <path class="st0" d="M260.7,380.89c0,1.2.3,2.14.89,2.8.59.67,1.42,1,2.47,1h2.62v3.66h-3.28c-2.12,0-3.75-.66-4.91-1.97-1.16-1.31-1.74-3.16-1.74-5.55v-32.24h3.94v32.29Z"/>
    <path class="st0" d="M278.88,387.28c-1.86-.99-3.28-2.44-4.25-4.35-.98-1.9-1.46-4.2-1.46-6.88v-3.2c0-2.81.47-5.2,1.41-7.19.94-1.99,2.3-3.5,4.09-4.54,1.79-1.04,3.94-1.56,6.45-1.56,2.37,0,4.39.51,6.07,1.53,1.68,1.02,2.96,2.51,3.84,4.47.88,1.96,1.33,4.32,1.33,7.07v3.25h-20.51v-3.55h16.84v-.27c0-2.81-.66-4.98-1.98-6.52-1.32-1.54-3.19-2.31-5.59-2.31-2.64,0-4.69.81-6.12,2.43-1.44,1.62-2.16,3.92-2.16,6.89v3.61c0,2.84.77,5.04,2.3,6.6s3.69,2.34,6.48,2.34c1.31,0,2.61-.27,3.9-.82s2.43-1.32,3.43-2.32l2.68,2.57c-1.39,1.35-2.95,2.39-4.7,3.13s-3.52,1.11-5.3,1.11c-2.62,0-4.87-.5-6.73-1.49Z"/>
    <path class="st0" d="M310.32,388.32c-1.44-.3-2.78-.74-4.03-1.33-1.25-.58-2.36-1.29-3.32-2.11l2.27-2.76c1.55,1.04,3.15,1.85,4.81,2.42s3.24.86,4.73.86c2.72,0,4.82-.46,6.3-1.39s2.23-2.24,2.23-3.94c0-1.24-.36-2.17-1.08-2.79-.72-.62-1.63-1.04-2.72-1.26s-2.62-.4-4.57-.55c-.18-.02-.37-.03-.56-.04-.19,0-.38-.02-.56-.04-.07,0-.15,0-.22-.01-.07,0-.15-.01-.22-.01-1.88-.18-3.45-.46-4.7-.82-1.26-.36-2.31-1.05-3.16-2.05-.85-1-1.27-2.45-1.27-4.35s.44-3.37,1.33-4.65c.88-1.28,2.18-2.25,3.88-2.93,1.7-.67,3.75-1.01,6.14-1.01,1.24,0,2.48.12,3.72.37s2.43.6,3.57,1.07,2.18,1.03,3.13,1.68l-2.27,2.71c-1.35-.78-2.75-1.39-4.21-1.82-1.46-.43-2.83-.64-4.1-.64-2.39,0-4.24.45-5.55,1.34-1.31.89-1.97,2.15-1.97,3.77,0,1.13.36,1.97,1.07,2.53.71.56,1.61.93,2.69,1.11,1.08.18,2.58.33,4.47.44.07,0,.15,0,.23.01.08,0,.16.01.23.01h.16c.05,0,.11,0,.16.03,1.99.11,3.68.36,5.07.74s2.57,1.14,3.51,2.27c.95,1.13,1.42,2.76,1.42,4.89,0,1.84-.47,3.41-1.42,4.7-.95,1.29-2.33,2.28-4.16,2.97s-4.02,1.03-6.59,1.03c-1.53,0-3.02-.15-4.46-.45Z"/>
    <path class="st0" d="M350.95,388.36h-3.94v-39.76h3.94v39.76Z"/>
    <path class="st0" d="M362.07,359.98h3.94v28.38h-3.94v-28.38ZM380.94,371.16c0-2.52-.66-4.47-1.98-5.85-1.32-1.38-3.19-2.08-5.59-2.08s-4.14.62-5.43,1.85-1.93,2.98-1.93,5.24l-.57-5.47c1-1.86,2.33-3.2,3.99-4.03,1.66-.83,3.58-1.24,5.77-1.24,3.08,0,5.46,1.01,7.15,3.02,1.69,2.01,2.53,4.86,2.53,8.54v17.23h-3.94v-17.2Z"/>
    <path class="st0" d="M392.17,359.98h12.8v3.39h-12.8v-3.39ZM396.7,386.59c-1.07-1.27-1.6-3.14-1.6-5.62v-29.26h3.94v29.31c0,1.22.27,2.16.82,2.82s1.36.98,2.43.98h2.68v3.66h-3.23c-2.3,0-3.98-.63-5.04-1.9Z"/>
    <path class="st0" d="M418.53,387.28c-1.86-.99-3.28-2.44-4.25-4.35-.98-1.9-1.46-4.2-1.46-6.88v-3.2c0-2.81.47-5.2,1.41-7.19.94-1.99,2.3-3.5,4.09-4.54,1.79-1.04,3.94-1.56,6.45-1.56,2.37,0,4.39.51,6.07,1.53,1.68,1.02,2.96,2.51,3.84,4.47.88,1.96,1.33,4.32,1.33,7.07v3.25h-20.51v-3.55h16.84v-.27c0-2.81-.66-4.98-1.98-6.52-1.32-1.54-3.19-2.31-5.59-2.31-2.64,0-4.69.81-6.12,2.43-1.44,1.62-2.16,3.92-2.16,6.89v3.61c0,2.84.77,5.04,2.3,6.6s3.69,2.34,6.48,2.34c1.31,0,2.61-.27,3.9-.82s2.43-1.32,3.43-2.32l2.68,2.57c-1.39,1.35-2.95,2.39-4.7,3.13s-3.52,1.11-5.3,1.11c-2.62,0-4.87-.5-6.73-1.49Z"/>
    <path class="st0" d="M448.6,380.89c0,1.2.3,2.14.89,2.8.59.67,1.42,1,2.47,1h2.62v3.66h-3.28c-2.12,0-3.75-.66-4.91-1.97-1.16-1.31-1.74-3.16-1.74-5.55v-32.24h3.94v32.29Z"/>
    <path class="st0" d="M465.83,380.89c0,1.2.3,2.14.89,2.8.59.67,1.42,1,2.47,1h2.62v3.66h-3.28c-2.12,0-3.75-.66-4.91-1.97-1.16-1.31-1.74-3.16-1.74-5.55v-32.24h3.94v32.29Z"/>
    <path class="st0" d="M479.93,348.6h3.94v3.94h-3.94v-3.94ZM479.93,359.98h3.94v28.38h-3.94v-28.38Z"/>
    <path class="st0" d="M497.87,387.41c-1.48-.9-2.6-2.21-3.36-3.92-.77-1.71-1.15-3.77-1.15-6.18v-6.18c0-2.44.37-4.53,1.12-6.26.75-1.73,1.84-3.05,3.27-3.95,1.43-.9,3.15-1.35,5.15-1.35,2.17,0,4.07.41,5.7,1.22,1.63.81,2.94,2.14,3.92,3.98l-.57,5.47c0-1.24-.29-2.42-.86-3.53-.57-1.11-1.41-2.01-2.5-2.71-1.09-.69-2.38-1.04-3.86-1.04-2.37,0-4.2.72-5.5,2.15-1.29,1.43-1.94,3.45-1.94,6.06v6.15c0,2.55.65,4.54,1.94,5.95,1.29,1.41,3.13,2.12,5.5,2.12,1.46,0,2.73-.36,3.83-1.07s1.93-1.64,2.52-2.78c.58-1.14.88-2.33.88-3.57l.38,5.93c-.71,1.73-1.84,2.98-3.39,3.73-1.55.76-3.47,1.13-5.77,1.13-2.06,0-3.83-.45-5.3-1.35ZM497.95,398.71c-1.68-.79-2.98-1.91-3.91-3.35l2.68-2.41c.86,1.11,1.89,1.97,3.09,2.58,1.2.61,2.47.92,3.8.92,2.64,0,4.69-.73,6.15-2.2,1.46-1.47,2.19-3.53,2.19-6.19v-28.08h3.94v27.54c0,2.61-.48,4.84-1.44,6.7s-2.35,3.27-4.17,4.24c-1.82.97-4.02,1.45-6.59,1.45-2.15,0-4.07-.4-5.74-1.19Z"/>
    <path class="st0" d="M530.27,387.28c-1.86-.99-3.28-2.44-4.25-4.35-.98-1.9-1.46-4.2-1.46-6.88v-3.2c0-2.81.47-5.2,1.41-7.19.94-1.99,2.3-3.5,4.09-4.54,1.79-1.04,3.94-1.56,6.45-1.56,2.37,0,4.39.51,6.07,1.53,1.68,1.02,2.96,2.51,3.84,4.47.88,1.96,1.33,4.32,1.33,7.07v3.25h-20.51v-3.55h16.84v-.27c0-2.81-.66-4.98-1.98-6.52-1.32-1.54-3.19-2.31-5.59-2.31-2.64,0-4.69.81-6.12,2.43-1.44,1.62-2.16,3.92-2.16,6.89v3.61c0,2.84.77,5.04,2.3,6.6s3.69,2.34,6.48,2.34c1.31,0,2.61-.27,3.9-.82s2.43-1.32,3.43-2.32l2.68,2.57c-1.39,1.35-2.95,2.39-4.7,3.13s-3.52,1.11-5.3,1.11c-2.62,0-4.87-.5-6.73-1.49Z"/>
    <path class="st0" d="M556.4,359.98h3.94v28.38h-3.94v-28.38ZM575.27,371.16c0-2.52-.66-4.47-1.98-5.85-1.32-1.38-3.19-2.08-5.59-2.08s-4.14.62-5.43,1.85-1.93,2.98-1.93,5.24l-.57-5.47c1-1.86,2.33-3.2,3.99-4.03,1.66-.83,3.58-1.24,5.77-1.24,3.08,0,5.46,1.01,7.15,3.02,1.69,2.01,2.53,4.86,2.53,8.54v17.23h-3.94v-17.2Z"/>
    <path class="st0" d="M593.31,387.4c-1.82-.91-3.19-2.28-4.09-4.1-.9-1.82-1.35-4.11-1.35-6.86v-4.68c0-2.72.46-4.98,1.37-6.78.91-1.8,2.27-3.16,4.09-4.06,1.81-.9,4.09-1.35,6.82-1.35,1.55,0,2.96.17,4.24.51,1.28.34,2.42.84,3.42,1.5,1,.67,1.88,1.51,2.62,2.53l-2.93,2.6c-.97-1.17-2.06-2.04-3.27-2.61-1.21-.57-2.55-.86-4.01-.86-2.83,0-4.94.71-6.33,2.12-1.39,1.41-2.09,3.55-2.09,6.41v4.68c0,2.9.7,5.07,2.11,6.51,1.4,1.44,3.51,2.16,6.32,2.16,1.55,0,2.96-.27,4.22-.82,1.27-.55,2.41-1.38,3.43-2.49l2.54,2.52c-.75,1-1.62,1.83-2.62,2.49-1,.66-2.14,1.15-3.42,1.48-1.28.33-2.69.49-4.24.49-2.73,0-5.01-.46-6.84-1.37Z"/>
    <path class="st0" d="M622.48,387.28c-1.86-.99-3.28-2.44-4.25-4.35-.98-1.9-1.46-4.2-1.46-6.88v-3.2c0-2.81.47-5.2,1.41-7.19.94-1.99,2.3-3.5,4.09-4.54,1.79-1.04,3.94-1.56,6.45-1.56,2.37,0,4.39.51,6.07,1.53,1.68,1.02,2.96,2.51,3.84,4.47.88,1.96,1.33,4.32,1.33,7.07v3.25h-20.51v-3.55h16.84v-.27c0-2.81-.66-4.98-1.98-6.52-1.32-1.54-3.19-2.31-5.59-2.31-2.64,0-4.69.81-6.12,2.43-1.44,1.62-2.16,3.92-2.16,6.89v3.61c0,2.84.77,5.04,2.3,6.6s3.69,2.34,6.48,2.34c1.31,0,2.61-.27,3.9-.82s2.43-1.32,3.43-2.32l2.68,2.57c-1.39,1.35-2.95,2.39-4.7,3.13s-3.52,1.11-5.3,1.11c-2.62,0-4.87-.5-6.73-1.49Z"/>
  </g>
</svg>